<?xml version="1.0" standalone="no"?>
<!DOCTYPE svg PUBLIC "-//W3C//DTD SVG 20010904//EN"
 "http://www.w3.org/TR/2001/REC-SVG-20010904/DTD/svg10.dtd">
<svg version="1.0" xmlns="http://www.w3.org/2000/svg"
 width="812.000000pt" height="365.000000pt" viewBox="0 0 812.000000 365.000000"
 preserveAspectRatio="xMidYMid meet">

<g transform="translate(0.000000,365.000000) scale(0.100000,-0.100000)"
fill="#000000" stroke="none">
<path d="M1315 2275 c-324 -51 -618 -245 -724 -477 -94 -208 -55 -436 99 -563
61 -51 163 -100 262 -127 72 -20 106 -23 253 -22 151 1 181 4 270 27 139 37
247 93 331 170 192 178 193 444 4 566 -92 60 -197 85 -355 84 -200 0 -308 -36
-411 -138 -59 -59 -80 -117 -71 -196 15 -128 117 -189 292 -176 135 10 309
104 241 130 -8 3 -34 -10 -58 -28 -84 -66 -264 -85 -356 -37 -76 39 -105 130
-63 198 49 81 162 153 271 175 89 17 246 15 330 -6 183 -44 269 -131 270 -272
1 -248 -281 -444 -660 -460 -210 -9 -384 35 -506 127 -104 79 -152 173 -153
301 -2 150 61 283 193 414 329 323 870 372 1325 118 160 -88 251 -155 603
-444 423 -346 681 -494 998 -573 292 -72 496 -72 779 0 131 33 194 57 350 131
206 97 373 213 716 499 384 318 555 423 823 505 295 90 645 42 898 -123 225
-147 345 -347 331 -550 -9 -130 -62 -220 -178 -297 -238 -159 -683 -144 -946
32 -131 87 -193 191 -193 323 0 182 162 286 445 286 170 0 284 -37 370 -120
77 -74 95 -144 55 -209 -61 -100 -300 -111 -418 -18 -44 34 -76 37 -70 7 4
-21 57 -56 126 -84 85 -33 247 -33 315 1 116 57 141 209 54 323 -42 55 -153
123 -237 144 -90 24 -302 24 -390 0 -140 -37 -225 -94 -270 -183 -34 -66 -35
-210 -2 -293 60 -150 237 -277 462 -331 137 -33 387 -34 508 -1 129 35 260
110 317 181 130 162 124 402 -13 605 -34 48 -134 147 -198 192 -193 138 -417
203 -695 204 -152 0 -263 -18 -407 -66 -186 -63 -395 -178 -557 -309 -33 -26
-65 -52 -71 -57 -9 -6 -10 13 -7 75 8 116 -1 151 -48 202 -45 49 -107 75 -179
75 -92 0 -211 -51 -277 -119 -37 -38 -78 -109 -69 -119 3 -3 7 -3 9 -1 2 2 19
27 39 54 131 182 397 215 485 60 28 -49 31 -139 6 -210 -39 -114 -206 -230
-405 -280 -96 -24 -284 -49 -299 -39 -5 3 -4 15 0 27 17 43 22 143 12 214 -20
132 -94 243 -199 295 -94 46 -227 24 -292 -48 l-25 -27 36 26 c85 63 182 71
276 23 110 -56 174 -165 181 -307 5 -93 -16 -192 -42 -202 -39 -15 -293 24
-416 65 -120 39 -280 133 -280 164 0 6 12 37 26 68 33 73 43 185 21 238 -30
71 -98 74 -133 6 -24 -47 -14 -168 20 -244 31 -67 31 -72 9 -91 -97 -78 -227
-138 -376 -172 -94 -22 -279 -44 -301 -35 -24 9 -47 96 -47 176 0 152 68 274
185 336 42 22 64 26 122 26 67 0 76 -3 130 -38 40 -26 52 -31 39 -16 -72 80
-202 100 -309 45 -142 -72 -215 -249 -186 -448 6 -43 9 -81 7 -83 -7 -8 -186
16 -280 36 -186 41 -356 150 -413 265 -23 48 -26 64 -23 133 4 68 8 84 33 116
111 146 390 78 506 -124 17 -29 21 -1 5 31 -32 62 -102 125 -177 160 -65 30
-82 34 -158 34 -72 0 -92 -4 -127 -24 -84 -48 -116 -134 -102 -266 4 -33 6
-61 5 -62 0 -1 -39 28 -86 64 -249 193 -506 316 -746 358 -104 18 -326 18
-439 0z m2819 -178 c31 -42 28 -154 -7 -230 -14 -31 -30 -57 -35 -57 -18 0
-54 74 -63 130 -11 69 -3 133 23 166 25 31 54 28 82 -9z m15 -385 c107 -102
293 -183 508 -219 56 -10 103 -21 103 -25 0 -18 -136 -149 -197 -190 -311
-208 -631 -208 -944 -2 -61 40 -199 174 -199 192 0 5 36 14 81 21 237 36 453
133 554 247 16 19 30 34 31 34 1 0 29 -26 63 -58z m-1031 -206 c43 -9 114 -20
158 -24 l79 -7 35 -64 c45 -82 154 -200 236 -253 36 -24 60 -44 55 -46 -17 -6
-189 57 -282 103 -50 25 -130 72 -177 105 -106 72 -292 220 -292 231 0 4 24 0
54 -11 30 -10 90 -26 134 -34z m2126 42 c-16 -26 -171 -150 -286 -228 -47 -33
-127 -80 -177 -105 -94 -47 -265 -109 -283 -103 -5 2 14 19 44 38 97 62 206
183 270 299 15 27 22 31 61 31 64 0 221 29 302 55 39 13 71 23 73 24 2 1 0 -5
-4 -11z"/>
</g>
</svg>
