<?xml version="1.0" standalone="no"?>
<!DOCTYPE svg PUBLIC "-//W3C//DTD SVG 20010904//EN"
 "http://www.w3.org/TR/2001/REC-SVG-20010904/DTD/svg10.dtd">
<svg version="1.0" xmlns="http://www.w3.org/2000/svg"
 width="853.000000pt" height="397.000000pt" viewBox="0 0 853.000000 397.000000"
 preserveAspectRatio="xMidYMid meet">

<g transform="translate(0.000000,397.000000) scale(0.100000,-0.100000)"
fill="#000000" stroke="none">
<path d="M1195 2581 c-140 -23 -249 -75 -325 -157 -65 -71 -84 -123 -85 -229
0 -81 3 -97 32 -158 57 -119 213 -255 368 -320 311 -130 642 -59 685 147 38
183 -96 338 -336 391 -96 22 -242 17 -297 -9 -41 -20 -103 -73 -95 -82 3 -2
30 5 59 17 78 32 217 32 319 0 218 -67 328 -173 301 -291 -37 -163 -247 -230
-501 -160 -132 37 -244 103 -340 200 -49 48 -95 106 -109 134 -70 144 -15 300
133 376 61 31 78 35 166 38 125 5 271 -18 409 -64 115 -38 305 -134 611 -307
553 -313 842 -407 1210 -394 177 6 260 24 367 78 l81 41 89 -31 c141 -48 226
-61 393 -61 167 0 252 13 393 61 l89 31 68 -37 c105 -54 201 -76 370 -82 201
-8 381 17 563 78 140 47 402 173 642 309 343 194 563 302 680 332 216 57 404
63 505 17 62 -29 121 -85 153 -144 33 -61 30 -173 -5 -241 -75 -143 -258 -278
-453 -335 -112 -32 -265 -32 -349 0 -115 45 -173 142 -146 242 21 79 125 153
295 210 96 32 246 33 323 1 70 -29 72 -28 32 13 -89 92 -310 102 -485 21 -137
-63 -210 -150 -222 -268 -24 -233 244 -356 581 -268 191 50 392 194 468 336
79 146 53 320 -63 429 -160 149 -439 180 -749 83 -165 -51 -329 -142 -725
-400 -336 -218 -535 -314 -760 -365 -117 -26 -362 -24 -467 5 -82 22 -178 66
-178 82 0 5 44 32 99 59 134 67 320 184 435 274 l38 30 122 -28 c275 -63 545
-34 646 70 64 66 48 179 -30 220 -158 82 -419 29 -709 -142 l-74 -44 -46 15
c-217 71 -415 81 -540 25 -55 -24 -116 -80 -142 -131 -41 -79 -33 -190 17
-264 14 -20 23 -41 22 -46 -5 -14 -85 -44 -197 -73 -131 -35 -280 -35 -406 0
-112 31 -188 60 -193 73 -1 5 8 26 22 46 79 117 45 278 -76 366 -115 83 -334
87 -575 9 l-62 -20 -40 25 c-76 48 -256 133 -336 159 -121 39 -222 50 -305 33
-126 -27 -170 -65 -170 -149 0 -72 27 -110 106 -147 149 -72 343 -79 564 -21
l126 33 158 -111 c146 -103 295 -193 389 -237 20 -10 37 -21 37 -26 0 -14
-100 -59 -178 -80 -113 -31 -359 -30 -492 1 -213 50 -404 144 -770 381 -345
223 -519 320 -650 365 -161 55 -374 84 -485 66z m1548 -126 c97 -25 372 -176
364 -200 -2 -5 -37 -18 -78 -29 -56 -14 -112 -19 -234 -20 -142 0 -167 2 -219
22 -33 12 -70 31 -83 43 -49 47 -34 140 29 179 41 25 137 27 221 5z m3394 -5
c36 -22 49 -41 58 -90 10 -55 -25 -97 -105 -129 -59 -23 -79 -25 -215 -26
-113 0 -170 5 -230 19 -44 10 -86 22 -93 26 -29 15 254 176 358 204 83 22 188
20 227 -4z m-2366 -156 c53 -17 118 -75 144 -129 21 -47 23 -132 2 -171 -8
-16 -26 -39 -40 -52 l-25 -24 -68 37 c-38 20 -150 87 -249 147 -99 61 -191
118 -205 126 l-25 16 30 12 c37 16 160 44 235 55 67 9 140 3 201 -17z m1429
-4 c47 -10 101 -25 120 -32 l35 -14 -85 -51 c-47 -27 -125 -76 -175 -108 -49
-32 -135 -83 -190 -112 l-100 -54 -32 35 c-109 119 -24 313 155 352 66 15 151
10 272 -16z"/>
</g>
</svg>
